<?xml version="1.0" encoding="UTF-8"?>
<svg id="Layer_2" data-name="Layer 2" xmlns="http://www.w3.org/2000/svg" viewBox="0 0 543.11 457.93">
  <g id="Layer_4" data-name="Layer 4">
    <g>
      <g>
        <path d="m356.85,157.07v-38.61h12.37c12.26,0,17.93,8.26,17.93,19.22,0,11.61-6.37,19.39-17.93,19.39h-12.37Zm5.67-5.18h7.02c7.88,0,11.77-5.45,11.77-14.09s-4-14.15-11.77-14.15h-7.02v28.24Z"/>
        <path d="m396,157.07v-38.61h25.65v5.18h-19.98v11.18h17.66v5.02h-17.66v12.04h19.93v5.18h-25.6Z"/>
        <path d="m14.78,232.07v-38.61h25.65v5.18h-19.98v11.18h17.66v5.02h-17.66v12.04h19.93v5.18H14.78Z"/>
        <path d="m50.05,232.07v-38.61h6.21l18.9,29.92h.05v-29.92h5.62v38.61h-6.21l-18.9-30.02h-.05v30.02h-5.62Z"/>
        <path d="m101.62,232.07v-33.37h-12.53v-5.24h30.73v5.24h-12.53v33.37h-5.67Z"/>
        <path d="m128.07,232.07v-38.61h15.17c8.15,0,12.69,4.05,12.69,10.91,0,7.61-5.56,10.53-9.99,11.5l10.69,16.09v.11h-6.75l-9.99-15.44h-6.16v15.44h-5.67Zm5.67-20.2h7.72c4.27,0,8.42-1.57,8.42-6.86,0-6.05-4.54-6.53-7.18-6.53h-8.96v13.39Z"/>
        <path d="m166.14,232.07v-38.61h25.65v5.18h-19.98v11.18h17.66v5.02h-17.66v12.04h19.93v5.18h-25.6Z"/>
        <path d="m199.46,212.9c0-14.8,9.72-20.3,18.25-20.3,12.2,0,15.39,11.45,15.39,11.45l-5.78,1.94s-2.11-8.26-9.99-8.26c-5.35,0-11.93,3.73-11.93,15.07s6.48,14.96,12.37,14.96c6.7,0,10.96-4.97,10.96-10.53v-.76h-11.5v-4.7h17.06v20.3h-4.37l-.32-8.42h-.16c-.43,3.62-5.13,9.29-12.58,9.29-6.64,0-17.39-4.7-17.39-20.03Z"/>
        <path d="m270.85,232.07l-3.56-9.99h-16.15l-3.56,9.99h-5.89l13.93-38.61h7.24l13.99,38.61h-5.99Zm-17.87-15.23h12.42l-6.21-17.33h-.05l-6.16,17.33Z"/>
        <path d="m301.52,223.26l5.56-2.59s1.13,7.18,9.23,7.18c4.48,0,7.67-2.05,7.67-5.72,0-4.1-4-5.56-9.02-7.02-6.16-1.78-12.47-4.37-12.47-11.77,0-6.53,5.4-10.75,12.58-10.75,11.5,0,13.45,8.48,13.45,8.48l-5.13,2.54s-1.24-5.99-8.1-5.99c-3.83,0-6.8,1.84-6.8,5.4,0,4.21,4.16,5.29,9.4,6.97,6.59,2.11,12.1,4.86,12.1,11.88s-5.56,11.07-13.82,11.07c-12.53,0-14.63-9.67-14.63-9.67Z"/>
        <path d="m339,232.07v-38.61h25.65v5.18h-19.98v11.18h17.66v5.02h-17.66v12.04h19.93v5.18h-25.6Z"/>
        <path d="m372.31,212.9c0-14.8,9.72-20.3,18.25-20.3,12.2,0,15.39,11.45,15.39,11.45l-5.78,1.94s-2.11-8.26-9.99-8.26c-5.35,0-11.93,3.73-11.93,15.07s6.48,14.96,12.37,14.96c6.7,0,10.96-4.97,10.96-10.53v-.76h-11.5v-4.7h17.06v20.3h-4.37l-.32-8.42h-.16c-.43,3.62-5.13,9.29-12.58,9.29-6.64,0-17.39-4.7-17.39-20.03Z"/>
        <path d="m417.51,219.81v-26.35h5.67v25c0,6.7,4.16,9.34,9.23,9.34s9.07-2.65,9.07-9.34v-25h5.67v26.35c0,8.1-6.75,13.12-15.01,13.12s-14.63-5.02-14.63-13.12Z"/>
        <path d="m457.53,232.07v-38.61h15.17c8.15,0,12.69,4.05,12.69,10.91,0,7.61-5.56,10.53-9.99,11.5l10.69,16.09v.11h-6.75l-9.99-15.44h-6.16v15.44h-5.67Zm5.67-20.2h7.72c4.27,0,8.42-1.57,8.42-6.86,0-6.05-4.54-6.53-7.18-6.53h-8.96v13.39Z"/>
        <path d="m521.57,232.07l-3.56-9.99h-16.15l-3.56,9.99h-5.89l13.93-38.61h7.24l13.99,38.61h-5.99Zm-17.87-15.23h12.42l-6.21-17.33h-.05l-6.16,17.33Z"/>
        <path d="m542.68,229.47c0,5.18-2.75,8.32-6.05,8.32-.38,0-.7,0-1.24-.05l.16-3.29c2,0,2.86-.76,3.08-2.48-2.21-.27-3.67-1.89-3.67-3.67,0-2.11,1.51-3.89,3.89-3.89,2.7,0,3.83,2.16,3.83,5.08Z"/>
        <path d="m42.7,307.07l-3.56-9.99h-16.15l-3.56,9.99h-5.89l13.93-38.61h7.24l13.99,38.61h-5.99Zm-17.87-15.23h12.42l-6.21-17.33h-.05l-6.16,17.33Zm15.12-33.1l-6.48,7.78h-5.02l4.54-7.78h6.97Z"/>
        <path d="m53.45,287.9c0-14.8,9.72-20.3,18.25-20.3,12.2,0,15.39,11.45,15.39,11.45l-5.78,1.94s-2.11-8.26-9.99-8.26c-5.35,0-11.93,3.73-11.93,15.07s6.48,14.96,12.37,14.96c6.7,0,10.96-4.97,10.96-10.53v-.76h-11.5v-4.7h17.06v20.3h-4.37l-.32-8.42h-.16c-.43,3.62-5.13,9.29-12.58,9.29-6.64,0-17.39-4.7-17.39-20.03Z"/>
        <path d="m98.65,307.07v-38.61h5.67v38.61h-5.67Z"/>
        <path d="m114.74,307.07v-38.61h5.67v33.21h18.63v5.4h-24.3Z"/>
        <path d="m155.51,304.47c0,5.18-2.75,8.32-6.05,8.32-.38,0-.7,0-1.24-.05l.16-3.29c2,0,2.86-.76,3.08-2.48-2.21-.27-3.67-1.89-3.67-3.67,0-2.11,1.51-3.89,3.89-3.89,2.7,0,3.83,2.16,3.83,5.08Z"/>
        <path d="m183.15,307.07v-38.61h12.37c12.26,0,17.93,8.26,17.93,19.22,0,11.61-6.37,19.39-17.93,19.39h-12.37Zm5.67-5.18h7.02c7.88,0,11.77-5.45,11.77-14.09s-4-14.15-11.77-14.15h-7.02v28.24Z"/>
        <path d="m222.3,307.07v-38.61h25.65v5.18h-19.98v11.18h17.66v5.02h-17.66v12.04h19.93v5.18h-25.6Z"/>
        <path d="m275.65,307.07v-38.61h25.65v5.18h-19.98v11.18h17.66v5.02h-17.66v12.04h19.93v5.18h-25.6Z"/>
        <path d="m308.81,307.07l13.72-19.39-13.23-19.22h6.64l10.37,15.17,10.04-15.17h6.7l-13.45,19.22,13.77,19.39h-6.8l-10.64-15.23-10.48,15.23h-6.64Z"/>
        <path d="m362.05,307.07v-33.37h-12.53v-5.24h30.73v5.24h-12.53v33.37h-5.67Z"/>
        <path d="m388.51,307.07v-38.61h15.17c8.15,0,12.69,4.05,12.69,10.91,0,7.61-5.56,10.53-9.99,11.5l10.69,16.09v.11h-6.75l-9.99-15.44h-6.16v15.44h-5.67Zm5.67-20.2h7.72c4.27,0,8.42-1.57,8.42-6.86,0-6.05-4.54-6.53-7.18-6.53h-8.96v13.39Z"/>
        <path d="m426.58,307.07v-38.61h25.65v5.18h-19.98v11.18h17.66v5.02h-17.66v12.04h19.93v5.18h-25.6Z"/>
        <path d="m461.84,307.07v-38.61h6.53l12.74,19.76,12.47-19.76h6.32v38.61h-5.56v-30.02h-.16l-12.53,19.66h-1.57l-12.53-19.66h-.11v30.02h-5.62Z"/>
        <path d="m537.12,307.07l-3.56-9.99h-16.15l-3.56,9.99h-5.89l13.93-38.61h7.24l13.99,38.61h-5.99Zm-17.87-15.23h12.42l-6.21-17.33h-.05l-6.16,17.33Z"/>
        <path d="m77.23,362.57c0-14.31,9.56-19.98,18.04-19.98s17.77,5.78,17.77,20.03-9.29,20.3-17.71,20.3-18.09-5.89-18.09-20.36Zm29.86,0c0-10.75-5.83-14.8-11.83-14.8s-12.1,4.05-12.1,14.8,6.16,15.17,12.2,15.17,11.72-4.27,11.72-15.17Z"/>
        <path d="m121.89,382.07v-38.61h15.61c6.91,0,11.02,4.05,11.02,9.83,0,3.89-2.43,6.97-5.4,8.15v.11c4.21,1.35,6.86,4.86,6.86,9.83,0,6.26-4.48,10.69-12.15,10.69h-15.93Zm5.67-22.41h9.61c3.13,0,5.45-2.05,5.45-5.51s-2.16-5.72-5.29-5.72h-9.77v11.23Zm0,17.33h10.64c3.51,0,5.83-2.38,5.83-6.16,0-4.27-2.54-6.53-6.05-6.53h-10.42v12.69Z"/>
        <path d="m156.78,370.89l5.78-.86s0,7.72,7.51,7.72c4.64,0,6.43-2.48,6.43-6.48v-27.81h5.67v27.22c0,7.72-4.32,12.26-12.1,12.26-13.07,0-13.28-12.04-13.28-12.04Z"/>
        <path d="m192.36,382.07v-38.61h25.65v5.18h-19.98v11.18h17.66v5.02h-17.66v12.04h19.93v5.18h-25.6Z"/>
        <path d="m238.05,382.07v-33.37h-12.53v-5.24h30.73v5.24h-12.53v33.37h-5.67Z"/>
        <path d="m264.5,382.07v-38.61h5.67v38.61h-5.67Z"/>
        <path d="m291.67,382.07l-13.66-38.61h5.99l11.34,32.08h.05l11.23-32.08h5.89l-13.61,38.61h-7.24Z"/>
        <path d="m320.34,382.07v-38.61h5.67v38.61h-5.67Z"/>
        <path d="m336.43,382.07v-38.61h12.37c12.26,0,17.93,8.26,17.93,19.22,0,11.61-6.37,19.39-17.93,19.39h-12.37Zm5.67-5.18h7.02c7.88,0,11.77-5.45,11.77-14.09s-4-14.15-11.77-14.15h-7.02v28.24Z"/>
        <path d="m399.88,382.07l-3.56-9.99h-16.15l-3.56,9.99h-5.89l13.93-38.61h7.24l13.99,38.61h-5.99Zm-17.87-15.23h12.42l-6.21-17.33h-.05l-6.16,17.33Z"/>
        <path d="m413.87,382.07v-38.61h12.37c12.26,0,17.93,8.26,17.93,19.22,0,11.61-6.37,19.39-17.93,19.39h-12.37Zm5.67-5.18h7.02c7.88,0,11.77-5.45,11.77-14.09s-4-14.15-11.77-14.15h-7.02v28.24Z"/>
        <path d="m453.02,382.07v-38.61h25.65v5.18h-19.98v11.18h17.66v5.02h-17.66v12.04h19.93v5.18h-25.6Z"/>
        <path d="m0,457.07v-38.61h25.65v5.18H5.67v11.18h17.66v5.02H5.67v12.04h19.93v5.18H0Z"/>
        <path d="m53.35,457.07v-38.61h25.65v5.18h-19.98v11.18h17.66v5.02h-17.66v12.04h19.93v5.18h-25.6Z"/>
        <path d="m88.61,457.07v-38.61h26.14v5.35h-20.3v10.96h17.77v5.18h-17.77v17.12h-5.83Z"/>
        <path d="m123.44,457.07v-38.61h5.67v38.61h-5.67Z"/>
        <path d="m138.02,437.68c0-13.66,8.48-20.09,17.77-20.09,13.18,0,15.77,12.8,15.77,12.8l-5.83,1.78s-1.73-9.45-9.99-9.45c-6.64,0-11.77,4.97-11.77,14.96s5.29,15.12,12.04,15.12c8.64,0,9.56-8.53,9.56-8.53l5.83,1.13s-1.84,12.53-15.39,12.53c-9.5,0-17.98-6.48-17.98-20.25Z"/>
        <path d="m181,457.07v-38.61h5.67v38.61h-5.67Z"/>
        <path d="m197.1,457.07v-38.61h25.65v5.18h-19.98v11.18h17.66v5.02h-17.66v12.04h19.93v5.18h-25.6Zm4.75-40.5l5.72-7.83h5.89l5.62,7.83h-5.29l-3.29-4.32-3.29,4.32h-5.35Z"/>
        <path d="m232.36,457.07v-38.61h6.21l18.9,29.92h.05v-29.92h5.62v38.61h-6.21l-18.9-30.02h-.05v30.02h-5.62Z"/>
        <path d="m271.99,437.68c0-13.66,8.48-20.09,17.77-20.09,13.18,0,15.77,12.8,15.77,12.8l-5.83,1.78s-1.73-9.45-9.99-9.45c-6.64,0-11.77,4.97-11.77,14.96s5.29,15.12,12.04,15.12c8.64,0,9.56-8.53,9.56-8.53l5.83,1.13s-1.84,12.53-15.39,12.53c-9.5,0-17.98-6.48-17.98-20.25Z"/>
        <path d="m314.98,457.07v-38.61h5.67v38.61h-5.67Z"/>
        <path d="m357.85,457.07l-3.56-9.99h-16.15l-3.56,9.99h-5.89l13.93-38.61h7.24l13.99,38.61h-5.99Zm-17.87-15.23h12.42l-6.21-17.33h-.05l-6.16,17.33Z"/>
      </g>
      <g>
        <path d="m200.53,157.2l-2.13-5.97h-9.65l-2.13,5.97h-3.52l8.32-23.06h4.32l8.35,23.06h-3.58Zm-10.68-9.1h7.42l-3.71-10.35h-.03l-3.68,10.35Z"/>
        <path d="m208.89,157.2v-23.06h3.71l11.29,17.87h.03v-17.87h3.35v23.06h-3.71l-11.29-17.94h-.03v17.94h-3.35Z"/>
        <path d="m232.56,145.55c0-8.55,5.71-11.94,10.77-11.94s10.61,3.45,10.61,11.97-5.55,12.13-10.58,12.13-10.81-3.52-10.81-12.16Zm17.84,0c0-6.42-3.48-8.84-7.06-8.84s-7.23,2.42-7.23,8.84,3.68,9.06,7.29,9.06,7-2.55,7-9.06Z"/>
        <path d="m258.11,151.94l3.32-1.55s.68,4.29,5.52,4.29c2.68,0,4.58-1.23,4.58-3.42,0-2.45-2.39-3.32-5.39-4.19-3.68-1.06-7.45-2.61-7.45-7.03,0-3.9,3.23-6.42,7.52-6.42,6.87,0,8.03,5.06,8.03,5.06l-3.06,1.52s-.74-3.58-4.84-3.58c-2.29,0-4.06,1.1-4.06,3.23,0,2.52,2.48,3.16,5.61,4.16,3.94,1.26,7.23,2.9,7.23,7.1s-3.32,6.61-8.26,6.61c-7.48,0-8.74-5.77-8.74-5.77Z"/>
      </g>
      <path d="m124.59,120.3v33.41h-22.77v-33.41H4.02v-22.96L101.08,5.32h23.52v94.26h29.3v20.72h-29.3Zm-22.58-88.1L29.22,99.58h72.79V32.2Z" style="stroke: #000; stroke-miterlimit: 10; stroke-width: 3px;"/>
      <path d="m288.97,35.47c2.23,7.27,3.12,16.17,3.12,25.96,0,8.46-1.19,18.99-3.26,25.52-6.97,22.4-26.85,34.27-55.63,34.27-30.56,0-49.25-12.31-55.93-35.31-2.23-6.68-2.97-16.47-2.97-24.63,0-9.2.59-16.91,2.67-24.63C182.76,15.59,202.19,1.5,233.2,1.5s49.4,13.8,55.78,33.97Zm-18.54,3.12c-4.6-12.76-16.91-20.92-37.23-20.92s-33.38,8.16-37.83,21.81c-1.63,5.34-2.37,15.13-2.37,21.81,0,7.71,1.04,16.76,2.67,21.96,4.9,14.39,17.8,21.96,37.53,21.96s32.64-7.86,37.53-22.1c1.63-4.9,2.52-14.98,2.52-21.96s-.89-17.06-2.82-22.55Z" style="stroke: #000; stroke-width: 3px;"/>
    </g>
  </g>
</svg>