<?xml version="1.0" encoding="UTF-8"?>
<svg id="Layer_2" data-name="Layer 2" xmlns="http://www.w3.org/2000/svg" viewBox="0 0 629.31 333.17">
  <g id="Layer_2-2" data-name="Layer 2">
    <g>
      <g style="fill: none; isolation: isolate;">
        <path d="m418.86,289.75h-9.44l-15.67,43.42h7.65l2.17-6.07h21.07l2.17,6.07h7.78l-15.73-43.42Zm-12.9,30.51l8.03-22.62h.07l8.1,22.62h-16.21Z" style="fill: #fff;"/>
        <polygon points="487.91 289.75 480.58 289.75 480.58 322.79 480.58 328.78 480.51 328.78 455.85 289.75 447.74 289.75 447.74 333.17 455.07 333.17 455.07 306.73 455.07 300.95 455.14 300.95 475.42 333.17 487.91 333.17 487.91 289.75" style="fill: #fff;"/>
      </g>
      <g style="fill: none; isolation: isolate;">
        <path d="m507,314.69c0-14.02,7.96-19.31,15.78-19.31s15.43,5.28,15.43,19.31c0,10.35-3.99,16.1-9.14,18.48h11.12c3.49-4.27,5.77-10.33,5.77-18.4,0-18.6-11.91-26.14-23.18-26.14s-23.54,7.4-23.54,26.07c0,8.15,2.3,14.22,5.82,18.48h11.55c-5.36-2.39-9.63-8.16-9.63-18.48Z" style="fill: #fff;"/>
      </g>
      <g style="fill: none; isolation: isolate;">
        <path d="m562.31,325.26l-7.26,3.38s.45,2.06,2.07,4.52h10.89c-4.87-2.64-5.7-7.91-5.7-7.91Z" style="fill: #fff;"/>
        <path d="m592.19,326.81c0-9.16-7.19-12.75-15.78-15.5-6.83-2.18-12.26-3.59-12.26-9.09,0-4.65,3.88-7.05,8.88-7.05,8.95,0,10.57,7.82,10.57,7.82l6.69-3.31s-2.54-11.06-17.55-11.06c-9.37,0-16.42,5.5-16.42,14.02,0,9.65,8.24,13.04,16.28,15.36,6.55,1.9,11.77,3.8,11.77,9.16,0,2.71-1.34,4.75-3.55,6h9.89c.96-1.85,1.48-3.98,1.48-6.36Z" style="fill: #fff;"/>
      </g>
      <g style="fill: none; isolation: isolate;">
        <path d="m263.38,259.53v72.98h-49.74v-72.98H0v-50.15L212.01,8.38h51.37v205.9h64.01v45.26h-64.01Zm-49.33-192.44L55.04,214.27h159.01V67.09Z" style="fill: #fff;"/>
      </g>
      <g style="fill: none; isolation: isolate;">
        <path d="m622.5,74.21c4.86,15.88,6.81,35.32,6.81,56.71,0,18.47-2.59,41.48-7.13,55.74-15.23,48.94-58.66,74.86-121.53,74.86-66.76,0-107.59-26.9-122.18-77.13-4.86-14.58-6.48-35.97-6.48-53.8,0-20.09,1.3-36.95,5.83-53.8C390.46,30.79,432.92,0,500.65,0s107.92,30.14,121.86,74.21Zm-40.51,6.81c-10.05-27.87-36.95-45.7-81.34-45.7s-72.92,17.82-82.64,47.64c-3.56,11.67-5.18,33.06-5.18,47.64,0,16.85,2.27,36.62,5.83,47.96,10.69,31.44,38.89,47.96,81.99,47.96s71.3-17.18,81.99-48.29c3.56-10.7,5.51-32.73,5.51-47.96s-1.94-37.27-6.16-49.26Z" style="fill: #fff;"/>
      </g>
    </g>
  </g>
</svg>